<?xml version="1.0" encoding="UTF-8" standalone="no"?>
<!-- Created with Inkscape (http://www.inkscape.org/) -->

<svg
   xmlns:dc="http://purl.org/dc/elements/1.1/"
   xmlns:cc="http://creativecommons.org/ns#"
   xmlns:rdf="http://www.w3.org/1999/02/22-rdf-syntax-ns#"
   xmlns:svg="http://www.w3.org/2000/svg"
   xmlns="http://www.w3.org/2000/svg"
   xmlns:sodipodi="http://sodipodi.sourceforge.net/DTD/sodipodi-0.dtd"
   xmlns:inkscape="http://www.inkscape.org/namespaces/inkscape"
   width="266.96521"
   height="266.96524"
   id="svg2"
   version="1.1"
   inkscape:version="0.48.2 r9819"
   sodipodi:docname="hyperboot.svg"
   inkscape:export-filename="/home/substack/media/vector/hyperboot.png"
   inkscape:export-xdpi="25.376093"
   inkscape:export-ydpi="25.376093">
  <defs
     id="defs4" />
  <sodipodi:namedview
     id="base"
     pagecolor="#ffffff"
     bordercolor="#666666"
     borderopacity="1.0"
     inkscape:pageopacity="0.0"
     inkscape:pageshadow="2"
     inkscape:zoom="0.61485144"
     inkscape:cx="174.43524"
     inkscape:cy="115.9493"
     inkscape:document-units="px"
     inkscape:current-layer="layer1"
     showgrid="false"
     inkscape:window-width="1364"
     inkscape:window-height="766"
     inkscape:window-x="0"
     inkscape:window-y="0"
     inkscape:window-maximized="0"
     fit-margin-top="20"
     fit-margin-left="20"
     fit-margin-right="20"
     fit-margin-bottom="20" />
  <metadata
     id="metadata7">
    <rdf:RDF>
      <cc:Work
         rdf:about="">
        <dc:format>image/svg+xml</dc:format>
        <dc:type
           rdf:resource="http://purl.org/dc/dcmitype/StillImage" />
        <dc:title></dc:title>
      </cc:Work>
    </rdf:RDF>
  </metadata>
  <g
     inkscape:label="Layer 1"
     inkscape:groupmode="layer"
     id="layer1"
     transform="translate(-57.185648,-35.512553)">
    <g
       id="g4220"
       transform="matrix(-0.8660254,0.5,-0.5,-0.8660254,493.78573,273.63973)">
      <path
         style="color:#000000;fill:#800080;fill-opacity:1;fill-rule:nonzero;stroke:#ffffff;stroke-width:1;stroke-linecap:round;stroke-linejoin:round;stroke-miterlimit:4;stroke-opacity:0;stroke-dashoffset:0;marker:none;visibility:visible;display:inline;overflow:visible;enable-background:accumulate"
         inkscape:transform-center-y="-94.331726"
         d="m 195.32229,129.20098 29.31921,0 -3.65943,22.66406 -22.40696,0 z"
         id="path4098"
         inkscape:connector-curvature="0"
         sodipodi:nodetypes="ccccc" />
      <path
         style="color:#000000;fill:#800080;fill-opacity:1;fill-rule:nonzero;stroke:#ffffff;stroke-width:1;stroke-linecap:round;stroke-linejoin:round;stroke-miterlimit:4;stroke-opacity:0;stroke-dashoffset:0;marker:none;visibility:visible;display:inline;overflow:visible;enable-background:accumulate"
         inkscape:transform-center-y="-94.331726"
         d="m 140.82223,151.76922 25.39118,-14.65961 8.16287,21.45737 -19.40499,11.20348 z"
         id="use4100"
         inkscape:connector-curvature="0"
         sodipodi:nodetypes="ccccc" />
      <path
         style="color:#000000;fill:#800080;fill-opacity:1;fill-rule:nonzero;stroke:#ffffff;stroke-width:1;stroke-linecap:round;stroke-linejoin:round;stroke-miterlimit:4;stroke-opacity:0;stroke-dashoffset:0;marker:none;visibility:visible;display:inline;overflow:visible;enable-background:accumulate"
         inkscape:transform-center-y="-94.331726"
         d="m 104.90792,198.56391 14.6596,-25.39118 17.79794,14.50119 -11.20348,19.405 z"
         id="use4102"
         inkscape:connector-curvature="0"
         sodipodi:nodetypes="ccccc" />
      <path
         style="color:#000000;fill:#800080;fill-opacity:1;fill-rule:nonzero;stroke:#ffffff;stroke-width:1;stroke-linecap:round;stroke-linejoin:round;stroke-miterlimit:4;stroke-opacity:0;stroke-dashoffset:0;marker:none;visibility:visible;display:inline;overflow:visible;enable-background:accumulate"
         inkscape:transform-center-y="-94.331726"
         d="m 97.202553,257.04646 0,-29.31921 22.664057,3.65943 0,22.40696 z"
         id="use4104"
         inkscape:connector-curvature="0"
         sodipodi:nodetypes="ccccc" />
      <path
         style="color:#000000;fill:#800080;fill-opacity:1;fill-rule:nonzero;stroke:#ffffff;stroke-width:1;stroke-linecap:round;stroke-linejoin:round;stroke-miterlimit:4;stroke-opacity:0;stroke-dashoffset:0;marker:none;visibility:visible;display:inline;overflow:visible;enable-background:accumulate"
         inkscape:transform-center-y="-94.331726"
         d="m 119.77079,311.54656 -14.65961,-25.39118 21.45737,-8.16287 11.20348,19.40499 z"
         id="use4106"
         inkscape:connector-curvature="0"
         sodipodi:nodetypes="ccccc" />
      <path
         style="color:#000000;fill:#800080;fill-opacity:1;fill-rule:nonzero;stroke:#ffffff;stroke-width:1;stroke-linecap:round;stroke-linejoin:round;stroke-miterlimit:4;stroke-opacity:0;stroke-dashoffset:0;marker:none;visibility:visible;display:inline;overflow:visible;enable-background:accumulate"
         inkscape:transform-center-y="-94.331726"
         d="m 166.56548,347.46084 -25.39118,-14.6596 14.50119,-17.79794 19.405,11.20348 z"
         id="use4108"
         inkscape:connector-curvature="0"
         sodipodi:nodetypes="ccccc" />
      <path
         style="color:#000000;fill:#800080;fill-opacity:1;fill-rule:nonzero;stroke:#ffffff;stroke-width:1;stroke-linecap:round;stroke-linejoin:round;stroke-miterlimit:4;stroke-opacity:0;stroke-dashoffset:0;marker:none;visibility:visible;display:inline;overflow:visible;enable-background:accumulate"
         inkscape:transform-center-y="-94.331726"
         d="m 225.04805,355.16619 -29.31921,0 3.65943,-22.66406 22.40696,0 z"
         id="use4110"
         inkscape:connector-curvature="0"
         sodipodi:nodetypes="ccccc" />
      <path
         style="color:#000000;fill:#800080;fill-opacity:1;fill-rule:nonzero;stroke:#ffffff;stroke-width:1;stroke-linecap:round;stroke-linejoin:round;stroke-miterlimit:4;stroke-opacity:0;stroke-dashoffset:0;marker:none;visibility:visible;display:inline;overflow:visible;enable-background:accumulate"
         inkscape:transform-center-y="-94.331726"
         d="m 279.54811,332.59796 -25.39118,14.65961 -8.16287,-21.45737 19.40499,-11.20348 z"
         id="use4112"
         inkscape:connector-curvature="0"
         sodipodi:nodetypes="ccccc" />
      <path
         style="color:#000000;fill:#800080;fill-opacity:1;fill-rule:nonzero;stroke:#ffffff;stroke-width:1;stroke-linecap:round;stroke-linejoin:round;stroke-miterlimit:4;stroke-opacity:0;stroke-dashoffset:0;marker:none;visibility:visible;display:inline;overflow:visible;enable-background:accumulate"
         inkscape:transform-center-y="-94.331726"
         d="m 315.46239,285.80327 -14.6596,25.39118 -17.79794,-14.50119 11.20348,-19.405 z"
         id="use4114"
         inkscape:connector-curvature="0"
         sodipodi:nodetypes="ccccc" />
      <path
         style="color:#000000;fill:#800080;fill-opacity:1;fill-rule:nonzero;stroke:#ffffff;stroke-width:1;stroke-linecap:round;stroke-linejoin:round;stroke-miterlimit:4;stroke-opacity:0;stroke-dashoffset:0;marker:none;visibility:visible;display:inline;overflow:visible;enable-background:accumulate"
         inkscape:transform-center-y="-94.331726"
         d="m 323.16777,227.32072 0,29.31921 -22.66406,-3.65943 0,-22.40696 z"
         id="use4116"
         inkscape:connector-curvature="0"
         sodipodi:nodetypes="ccccc" />
      <path
         style="color:#000000;fill:#800080;fill-opacity:1;fill-rule:nonzero;stroke:#ffffff;stroke-width:1;stroke-linecap:round;stroke-linejoin:round;stroke-miterlimit:4;stroke-opacity:0;stroke-dashoffset:0;marker:none;visibility:visible;display:inline;overflow:visible;enable-background:accumulate"
         inkscape:transform-center-y="-94.331726"
         d="m 300.59954,172.82065 14.6596,25.39118 -21.45736,8.16287 -11.20348,-19.40499 z"
         id="use4118"
         inkscape:connector-curvature="0"
         sodipodi:nodetypes="ccccc" />
      <path
         style="color:#000000;fill:#800080;fill-opacity:1;fill-rule:nonzero;stroke:#ffffff;stroke-width:1;stroke-linecap:round;stroke-linejoin:round;stroke-miterlimit:4;stroke-opacity:0;stroke-dashoffset:0;marker:none;visibility:visible;display:inline;overflow:visible;enable-background:accumulate"
         inkscape:transform-center-y="-94.331726"
         d="m 253.80485,136.90634 25.39118,14.6596 -14.50119,17.79794 -19.405,-11.20348 z"
         id="use4120"
         inkscape:connector-curvature="0"
         sodipodi:nodetypes="ccccc" />
    </g>
    <path
       style="color:#000000;fill:#800080;fill-opacity:1;fill-rule:nonzero;stroke:#ffffff;stroke-width:0.71632075;stroke-linecap:round;stroke-linejoin:round;stroke-miterlimit:4;stroke-opacity:0;stroke-dashoffset:0;marker:none;visibility:visible;display:inline;overflow:visible;enable-background:accumulate"
       d="M 122.5 52.875 L 124.78125 68.6875 L 116.34375 73.65625 L 107.4375 73.71875 L 101.65625 58.53125 L 83.46875 69.03125 L 93.09375 81.28125 L 87.9375 90.375 L 80.8125 94.59375 L 68.25 84.375 L 57.75 102.5625 L 71.625 108.125 L 71.71875 119 L 67.78125 125.96875 L 52.21875 123.4375 L 52.21875 144.4375 L 66.375 142.40625 L 72.03125 152 L 72.09375 159.90625 L 57.875 165.3125 L 68.375 183.5 L 79.1875 175 L 88.75 180.40625 L 92.90625 187.4375 L 83.71875 198.71875 L 101.90625 209.21875 L 106.90625 196.71875 L 117.40625 196.625 L 125 200.9375 L 122.78125 214.75 L 143.78125 214.75 L 141.875 201.34375 L 150.375 196.34375 L 159.78125 196.28125 L 164.65625 209.0625 L 182.84375 198.5625 L 174.21875 187.65625 L 178.78125 179.59375 L 187.375 174.53125 L 198.0625 183.25 L 208.5625 165.0625 L 195.0625 159.625 L 195 150.9375 L 200.125 141.90625 L 214.09375 144.15625 L 214.09375 123.15625 L 199.0625 125.3125 L 194.71875 117.96875 L 194.625 107.5625 L 208.40625 102.3125 L 197.90625 84.125 L 185.5625 93.84375 L 177.96875 89.5625 L 172.84375 80.84375 L 182.59375 68.90625 L 164.40625 58.40625 L 158.4375 73.28125 L 149.34375 73.34375 L 140.96875 68.59375 L 143.5 52.875 L 122.5 52.875 z M 119.90625 108 L 150.0625 109.1875 L 164.125 135.875 L 148.0625 161.40625 L 117.90625 160.25 L 103.8125 133.5625 L 119.90625 108 z "
       transform="translate(57.185648,35.512553)"
       id="path4294" />
    <path
       id="path4408"
       d="m 449.66957,96.519599 2.28125,15.812501 -8.4375,4.96875 -8.90625,0.0625 -5.78125,-15.1875 -18.1875,10.5 9.625,12.25 -5.15625,9.09375 -7.125,4.21875 -12.5625,-10.21875 -10.5,18.1875 13.875,5.5625 0.0937,10.875 -3.9375,6.96875 -15.5625,-2.53125 0,21 14.15625,-2.03125 5.65625,9.59375 0.0625,7.90625 -14.21875,5.40625 10.5,18.1875 10.8125,-8.5 9.5625,5.40625 4.15625,7.03125 -9.1875,11.28125 18.1875,10.5 5,-12.5 10.5,-0.0937 7.59375,4.3125 -2.21875,13.8125 21,0 -1.90625,-13.40625 8.5,-5 9.40625,-0.0625 4.875,12.78125 18.1875,-10.5 -8.625,-10.90625 4.5625,-8.0625 8.59375,-5.0625 10.6875,8.71875 10.5,-18.1875 -13.5,-5.4375 -0.0625,-8.6875 5.125,-9.03125 13.96875,2.25 0,-21 -15.03125,2.15625 -4.34375,-7.34375 -0.0937,-10.40625 13.78125,-5.25 -10.5,-18.1875 -12.34375,9.71875 -7.59375,-4.28125 -5.125,-8.71875 9.75,-11.9375 -18.1875,-10.5 -5.96875,14.875 -9.09375,0.0625 -8.375,-4.75 2.53125,-15.718751 -21,0 z m -2.59375,55.125001 30.15625,1.1875 14.0625,26.6875 -16.0625,25.53125 -30.15625,-1.15625 -14.09375,-26.6875 16.09375,-25.5625 z"
       style="color:#000000;fill:#800080;fill-opacity:1;fill-rule:nonzero;stroke:#ffffff;stroke-width:0.71632075;stroke-linecap:round;stroke-linejoin:round;stroke-miterlimit:4;stroke-opacity:0;stroke-dashoffset:0;marker:none;visibility:visible;display:inline;overflow:visible;enable-background:accumulate"
       inkscape:connector-curvature="0"
       inkscape:export-filename="/home/substack/media/vector/hyperboot.png"
       inkscape:export-xdpi="35.43"
       inkscape:export-ydpi="35.43" />
  </g>
</svg>
